<svg width="11" height="25" viewBox="0 0 11 25" fill="none" xmlns="http://www.w3.org/2000/svg">
<mask id="mask0" mask-type="alpha" maskUnits="userSpaceOnUse" x="0" y="0" width="10" height="24">
<path fill-rule="evenodd" clip-rule="evenodd" d="M0.019043 0.0578613H9.93812V23.1202H0.019043V0.0578613Z" fill="white"/>
</mask>
<g mask="url(#mask0)">
<path fill-rule="evenodd" clip-rule="evenodd" d="M1.90566 5.10086C1.90859 5.14606 1.91459 5.24007 1.96729 5.34587L2.12917 5.67185C2.398 6.21319 2.67595 6.77289 2.96047 7.32039C3.09537 7.57987 3.40888 7.71805 3.64887 7.72046C4.11406 7.72498 4.58587 7.72508 5.04213 7.72518C5.45139 7.72524 5.8745 7.72534 6.28967 7.72867H6.29921C6.64089 7.72867 6.89976 7.56622 7.04795 7.25887C7.21343 6.91554 7.3885 6.56734 7.55778 6.23063C7.64552 6.05607 7.73331 5.88151 7.82034 5.70659C7.87134 5.60407 7.91768 5.50381 7.96673 5.39759C7.98885 5.34977 8.01147 5.30077 8.03518 5.25017L8.3782 4.51909H1.83013L1.90525 5.09485L1.90566 5.10086ZM2.34514 18.6465H7.61838L6.64412 8.91176H3.31878L2.34514 18.6465ZM1.20234 21.935H8.75549V19.8503H1.20234V21.935ZM0.500086 23.1202C0.0704037 22.9302 0.0287387 22.8304 0.0283282 22.2831C0.0280717 21.9899 0.0305859 21.6906 0.0329463 21.4012C0.0382827 20.7529 0.0438243 20.0826 0.0199132 19.4187C0.00262118 18.9368 0.243118 18.6786 0.734682 18.6516L1.17093 18.6275L1.26104 17.7754C1.29454 17.4609 1.32825 17.1445 1.36007 16.828C1.52724 15.1641 1.69375 13.5002 1.86025 11.8364L2.01921 10.2482C2.03158 10.1248 2.04415 10.0013 2.05667 9.87791C2.09644 9.48763 2.13754 9.08412 2.17135 8.68445C2.19116 8.44986 2.11034 8.24651 2.06037 8.14614C1.81818 7.65951 1.5746 7.17348 1.33102 6.68741C0.939056 5.90511 0.533747 5.09624 0.141214 4.29871C0.0721483 4.15832 0.0317148 4.01762 0.0303807 3.91259C0.01627 2.8158 0.0232997 1.70968 0.0301241 0.639939C0.0317148 0.385075 0.130541 0.230371 0.360519 0.122719C0.452469 0.0796687 0.540314 0.0578613 0.621643 0.0578613C0.741148 0.0578613 0.85783 0.104503 0.978412 0.200405C1.07601 0.278039 1.18787 0.40483 1.18622 0.698896C1.18335 1.22032 1.18474 1.7495 1.18607 2.26123L1.18689 2.6006C1.18704 2.66664 1.19212 2.72549 1.197 2.7824C1.19895 2.80482 1.201 2.82843 1.2028 2.85388L1.23594 3.33143H4.39904L4.39894 2.2954C4.39879 1.79907 4.39863 1.30699 4.39971 0.814963L4.39966 0.761137C4.39945 0.679141 4.3992 0.601815 4.40895 0.548553C4.46226 0.257412 4.691 0.0692012 4.99179 0.0692012C5.01139 0.0692012 5.03151 0.0700222 5.05152 0.0716128C5.34215 0.0948569 5.55755 0.343051 5.56371 0.661592C5.57182 1.08322 5.57002 1.51521 5.56828 1.93299C5.56746 2.12146 5.56674 2.30987 5.56679 2.49829V3.33323H8.72989L8.75647 2.84813C8.7579 2.82109 8.75975 2.79425 8.7616 2.76757C8.76616 2.70174 8.77129 2.62708 8.7715 2.54868C8.77206 2.28263 8.77191 2.01668 8.77181 1.75068C8.7717 1.41854 8.7715 1.08635 8.77273 0.75421C8.7734 0.578109 8.81855 0.159663 9.22289 0.076744C9.27343 0.0664303 9.32238 0.0611453 9.36841 0.0611453C9.61506 0.0611453 9.80435 0.217953 9.93083 0.527105C9.93319 0.532903 9.93565 0.538547 9.93812 0.544038V4.0737C9.91262 4.12943 9.88824 4.18223 9.86325 4.23205L9.36256 5.23016C8.89044 6.17096 8.40221 7.14383 7.92542 8.10294C7.86688 8.22085 7.77205 8.45745 7.79622 8.71698C7.87227 9.53669 7.95637 10.3685 8.03775 11.173C8.0634 11.4265 8.08901 11.6802 8.11446 11.9338C8.11446 11.9338 8.51027 15.8826 8.60787 16.8545C8.63871 17.1612 8.67031 17.4678 8.70218 17.777L8.7932 18.6632L9.25532 18.6643C9.59915 18.6652 9.79665 18.7931 9.93812 19.1151V22.6725C9.8514 22.8909 9.70968 23.0324 9.48981 23.1202H0.500086Z" fill="white"/>
</g>
</svg>
