<svg width="1349" height="1141" viewBox="0 0 1349 1141" fill="none" xmlns="http://www.w3.org/2000/svg">
<path opacity="0.503246" fill-rule="evenodd" clip-rule="evenodd" d="M1348.84 611.173C1346.42 713.323 1320.58 813.539 1273.4 904.137C1272.39 906.205 1271.33 908.214 1270.21 910.267C1153.13 1130.28 924.098 1267.71 674.893 1267.52C640.512 1267.59 606.175 1264.99 572.14 1259.87C243.195 1209.07 0.422523 926.016 0.482921 593.175C0.482921 589.279 0.482921 585.685 0.482921 581.85C2.06838 477.451 28.0851 374.879 76.3284 282.273C175.488 91.5342 359.568 -40.5877 572.035 -73.3841C606.054 -78.5784 640.391 -81.1151 674.773 -81.1151C809.899 -81.3567 941.976 -40.7689 1053.68 35.3182L876.912 289.068C787.084 229.424 675.543 212.392 572.035 242.531C501.55 263.459 438.901 305.043 392.304 361.908C323.948 445.545 296.043 555.078 316.096 661.244C342.46 799.798 446.33 910.796 582.876 946.37C719.422 981.87 864.228 935.635 954.826 827.461L572.14 727.244V407.675L760.237 456.931L1034.46 528.835L1348.84 611.173Z" fill="#36373D"/>
</svg>
