<svg width="1349" height="1349" viewBox="0 0 1349 1349" fill="none" xmlns="http://www.w3.org/2000/svg">
<path opacity="0.503246" fill-rule="evenodd" clip-rule="evenodd" d="M1348.35 692.29C1345.94 794.439 1320.1 894.655 1272.92 985.253C1271.9 987.322 1270.85 989.33 1269.73 991.383C1152.65 1211.4 923.615 1348.82 674.411 1348.64C640.029 1348.7 605.692 1346.1 571.657 1340.99C242.712 1290.19 -0.0603873 1007.13 1.12673e-05 674.291C1.12673e-05 670.395 1.12673e-05 666.801 1.12673e-05 662.966C1.58547 558.567 27.6022 455.995 75.8455 363.389C175.005 172.65 359.085 40.5285 571.552 7.73209C605.571 2.53781 639.908 0.0010723 674.29 0.0010723C809.416 -0.240522 941.493 40.3473 1053.2 116.434L876.429 370.184C786.601 310.54 675.06 293.508 571.552 323.647C501.067 344.575 438.418 386.159 391.821 443.025C323.465 526.662 295.56 636.194 315.613 742.36C341.977 880.914 445.847 991.912 582.393 1027.49C718.939 1062.99 863.745 1016.75 954.343 908.577L571.657 808.361V488.792L759.754 538.047L1033.98 609.951L1348.35 692.29Z" fill="#36373D"/>
</svg>
