<svg width="18" height="19" viewBox="0 0 18 19" fill="none" xmlns="http://www.w3.org/2000/svg">
<path d="M3.6 8.6042C5 11.4042 7.4 13.7042 10.2 15.2042L12.4 13.0042C12.7 12.7042 13.1 12.6042 13.4 12.8042C14.5 13.2042 15.7 13.4042 17 13.4042C17.6 13.4042 18 13.8042 18 14.4042V17.8042C18 18.4042 17.6 18.8042 17 18.8042C7.6 18.8042 0 11.2042 0 1.8042C0 1.2042 0.4 0.804199 1 0.804199H4.5C5.1 0.804199 5.5 1.2042 5.5 1.8042C5.5 3.0042 5.7 4.2042 6.1 5.4042C6.2 5.7042 6.1 6.1042 5.9 6.4042L3.6 8.6042Z" fill="#EA5634"/>
</svg>
