<svg width="11" height="27" viewBox="0 0 11 27" fill="none" xmlns="http://www.w3.org/2000/svg">
<mask id="mask0" mask-type="alpha" maskUnits="userSpaceOnUse" x="0" y="0" width="10" height="26">
<path fill-rule="evenodd" clip-rule="evenodd" d="M0.019043 0.372559H9.90681V25.5533H0.019043V0.372559Z" fill="white"/>
</mask>
<g mask="url(#mask0)">
<path fill-rule="evenodd" clip-rule="evenodd" d="M1.91594 7.74801L2.13346 8.18468C2.41239 8.7451 2.67587 9.27446 2.95111 9.81027C3.07937 10.06 3.37494 10.1925 3.60064 10.1943C4.05042 10.1978 4.50751 10.1995 4.95918 10.1995C5.40967 10.1995 5.86747 10.1978 6.31986 10.1943C6.53978 10.1926 6.83729 10.0727 6.97097 9.81334C7.2473 9.27702 7.51205 8.74654 7.79232 8.18498L8.01034 7.74852L8.38079 7.00778H1.54673L1.91594 7.74801ZM2.33332 21.091H7.59194L6.62162 11.3875H3.30216L2.33332 21.091ZM1.19501 24.3757H8.73245V22.2973H1.19501V24.3757ZM0.466257 25.5533C0.245465 25.4652 0.104207 25.3244 0.019043 25.1078V21.5568C0.156769 21.2386 0.355963 21.107 0.68971 21.107L1.17101 21.1105L1.21236 20.6401C1.21753 20.5818 1.22219 20.5262 1.2268 20.4724C1.23575 20.3658 1.2442 20.2665 1.25418 20.1672L1.42824 18.4419C1.66644 16.0811 1.91277 13.64 2.15147 11.2386C2.17302 11.0215 2.13525 10.7954 2.04778 10.6184C1.49212 9.49382 0.92212 8.35362 0.370908 7.25094L0.019043 6.54696V6.25917C0.165572 5.94288 0.385955 5.82296 0.800772 5.82296C0.829893 5.82296 0.859424 5.82363 0.88957 5.8249C1.20929 5.83831 1.55195 5.84461 1.96799 5.84461C2.23725 5.84461 2.50989 5.842 2.77357 5.83944C3.03444 5.83698 3.30416 5.83437 3.56815 5.83437H4.36533V3.70988L3.19463 3.70962C3.05404 3.70962 2.91421 3.70972 2.77434 3.71003C2.59434 3.71003 2.46449 3.65174 2.35159 3.52097C2.18571 3.32889 2.155 3.13973 2.2522 2.90773C2.34872 2.67726 2.50103 2.57122 2.74603 2.5639C2.86882 2.56021 3.00117 2.55852 3.16264 2.55852C3.27529 2.55852 3.3886 2.55934 3.50325 2.56016C3.62286 2.56098 3.7438 2.56185 3.86668 2.56185H4.37848V2.05005C4.37848 1.95864 4.38002 1.87097 4.38145 1.78596C4.38478 1.5908 4.3879 1.40645 4.37439 1.21268C4.33872 0.700932 4.52363 0.496159 4.82165 0.372559H5.09567C5.44933 0.517194 5.57713 0.75114 5.54806 1.18382C5.53465 1.38306 5.53777 1.57335 5.54105 1.77485C5.54248 1.86329 5.54401 1.95449 5.54401 2.04969V2.56149H6.05582C6.17665 2.56149 6.29611 2.56072 6.41454 2.55996C6.52888 2.55924 6.64229 2.55852 6.75509 2.55852C6.91682 2.55852 7.04954 2.56006 7.17278 2.56339C7.41333 2.56983 7.56554 2.67158 7.66651 2.89334C7.76816 3.11654 7.74574 3.30258 7.59374 3.49661C7.48001 3.6417 7.35104 3.70696 7.17549 3.70829C7.03413 3.70931 6.89272 3.70962 6.75049 3.70962C6.64009 3.70962 6.18761 3.70885 6.07086 3.70885H5.55906V5.83325L7.38687 5.83335C8.00282 5.83335 8.61867 5.83345 9.23463 5.83483C9.50542 5.83545 9.72105 5.93325 9.82622 6.10327C9.93145 6.2734 9.9226 6.51052 9.80191 6.75383C9.55968 7.24199 9.31601 7.72948 9.07239 8.21697C8.69048 8.98104 8.29552 9.77122 7.91249 10.552C7.80782 10.7654 7.76156 11.0326 7.78551 11.2851C7.91433 12.6414 8.05195 14.019 8.18507 15.3513C8.22766 15.7775 8.27024 16.2037 8.31262 16.6299C8.36728 17.1798 8.42168 17.7296 8.47614 18.2794C8.54682 18.9931 8.6175 19.7068 8.68864 20.4205C8.69534 20.488 8.70691 20.5489 8.71709 20.6028C8.72093 20.623 8.72492 20.644 8.72866 20.6659L8.79033 21.0265L9.15156 21.0849C9.18928 21.091 9.22675 21.0965 9.26396 21.102C9.33126 21.1119 9.39482 21.1212 9.45046 21.1332C9.7166 21.1906 9.89675 21.3992 9.8988 21.6521C9.90724 22.7147 9.91272 23.8577 9.89567 25.017C9.89312 25.1917 9.85458 25.3899 9.44626 25.5533H0.466257Z" fill="white"/>
</g>
</svg>
