<svg width="16" height="16" viewBox="0 0 16 16" fill="none" xmlns="http://www.w3.org/2000/svg">
<path fill-rule="evenodd" clip-rule="evenodd" d="M1.95161 0.914062C0.795985 0.914062 0.0400391 1.65448 0.0400391 2.62814C0.0400391 3.58059 0.774102 4.34341 1.9068 4.34341H1.92938C3.10742 4.34341 3.84008 3.58076 3.84008 2.62814C3.81784 1.65448 3.10742 0.914062 1.95161 0.914062ZM15.7962 9.93023V15.6198H12.4191V10.3112C12.4191 8.97761 11.9307 8.06756 10.7085 8.06756C9.77525 8.06756 9.21994 8.68093 8.97572 9.27429C8.88661 9.48633 8.86367 9.78164 8.86367 10.0785V15.6198H5.48537C5.48537 15.6198 5.53089 6.62879 5.48537 5.6972H8.86315V7.10365C8.85985 7.10878 8.85605 7.11407 8.85228 7.11932L8.85226 7.11934C8.84824 7.12494 8.84425 7.13051 8.84091 7.1358H8.86315V7.10365C9.31185 6.42855 10.1135 5.46413 11.9074 5.46413C14.1299 5.46413 15.7962 6.88238 15.7962 9.93023ZM3.61757 15.6198H0.240668V5.6972H3.61757V15.6198Z" fill="#F2F2F2"/>
</svg>
