<svg width="112" height="37" viewBox="0 0 112 37" fill="none" xmlns="http://www.w3.org/2000/svg">
<mask id="mask0" mask-type="alpha" maskUnits="userSpaceOnUse" x="0" y="0" width="112" height="37">
<path fill-rule="evenodd" clip-rule="evenodd" d="M0.340576 0H111.245V36.7229H0.340576V0Z" fill="white"/>
</mask>
<g mask="url(#mask0)">
<path fill-rule="evenodd" clip-rule="evenodd" d="M67.8265 26.8987C72.142 22.2136 73.2759 15.4184 70.714 9.5849C68.1509 3.75346 62.3803 -0.00943882 56.0102 1.77828e-05H39.8386V36.72H48.2546V30.6262L51.1569 31.3602H51.1808C51.74 31.5353 52.3086 31.6784 52.8834 31.789L72.0424 36.6427V27.9714L67.8199 26.902L67.8265 26.8987ZM48.2546 23.6834V8.41927H55.9942C60.1493 8.50273 63.474 11.8931 63.474 16.0495C63.474 20.2047 60.1493 23.5967 55.9942 23.6802L48.2546 23.6834Z" fill="#F2F2F2"/>
<path fill-rule="evenodd" clip-rule="evenodd" d="M86.0025 0H77.5898V36.72H86.0025V8.41596H94.4168V36.72H102.832V8.41596H111.245V0H86.0025Z" fill="#F2F2F2"/>
<path fill-rule="evenodd" clip-rule="evenodd" d="M37.0556 18.8507C36.9898 21.6322 36.2863 24.361 35.0015 26.828C34.9739 26.8843 34.9451 26.939 34.9147 26.9949C31.7266 32.9859 25.4902 36.7278 18.7045 36.7229C17.7683 36.7245 16.8333 36.6538 15.9065 36.5144C6.9495 35.1313 0.338932 27.4238 0.340576 18.3606C0.340576 18.2546 0.340576 18.1567 0.340576 18.0523C0.383748 15.2095 1.09217 12.4165 2.40582 9.89492C5.10588 4.70119 10.1183 1.10357 15.9037 0.210541C16.83 0.0691035 17.765 2.91983e-05 18.7012 2.91983e-05C22.3806 -0.0065493 25.977 1.09864 29.0187 3.17046L24.2053 10.0799C21.7594 8.45587 18.7221 7.99209 15.9037 8.81276C13.9844 9.38262 12.2785 10.5149 11.0097 12.0634C9.14837 14.3408 8.38855 17.3233 8.93457 20.2141C9.65245 23.9869 12.4808 27.0093 16.1989 27.978C19.917 28.9446 23.86 27.6857 26.3269 24.7401L15.9065 22.0113V13.3096L21.0283 14.6508L28.4953 16.6087L37.0556 18.8507Z" fill="#F2F2F2"/>
</g>
</svg>
