<svg width="18" height="16" viewBox="0 0 18 16" fill="none" xmlns="http://www.w3.org/2000/svg">
<path d="M17.9188 2.65485C17.2623 2.95055 16.5558 3.15001 15.8146 3.23927C16.5714 2.78011 17.1518 2.05279 17.4254 1.18515C16.7175 1.61089 15.9338 1.91982 15.099 2.08659C14.431 1.36515 13.4787 0.914062 12.425 0.914062C10.402 0.914062 8.76172 2.57624 8.76172 4.62669C8.76172 4.91724 8.79398 5.20046 8.85669 5.47265C5.81184 5.31764 3.11206 3.83986 1.30508 1.59363C0.989724 2.14169 0.809207 2.77937 0.809207 3.46041C0.809207 4.74827 1.45588 5.8848 2.43893 6.5504C1.83866 6.53093 1.27355 6.3638 0.779484 6.08573C0.779121 6.10116 0.779121 6.11695 0.779121 6.13275C0.779121 7.9312 2.04201 9.43139 3.71813 9.773C3.41075 9.85749 3.08705 9.90304 2.75284 9.90304C2.5165 9.90304 2.28705 9.8799 2.0634 9.83619C2.52991 11.311 3.8827 12.3847 5.4856 12.4145C4.23177 13.4103 2.65243 14.0039 0.935714 14.0039C0.64029 14.0039 0.348492 13.9863 0.0617676 13.9518C1.68352 15.0056 3.60903 15.6198 5.67772 15.6198C12.4166 15.6198 16.1013 9.96292 16.1013 5.05683C16.1013 4.89594 16.098 4.73542 16.0911 4.57599C16.8067 4.05365 17.428 3.39943 17.9188 2.65485Z" fill="#F2F2F2"/>
</svg>
